<svg width="18" height="18" viewBox="0 0 18 18" fill="none" xmlns="http://www.w3.org/2000/svg">
<g clip-path="url(#clip0_14760_19395)">
<path d="M16.95 9.1498C16.95 8.5498 16.875 7.9498 16.8 7.4248H9V10.6498H13.5C13.275 11.6998 12.75 12.5998 11.85 13.1998V15.2998H14.55C16.125 13.8748 16.95 11.6998 16.95 9.1498Z" fill="#4285F4"/>
<path d="M9.00039 17.2502C11.2504 17.2502 13.1254 16.5002 14.4754 15.2252L11.7754 13.1252C11.0254 13.6502 10.0504 13.9502 9.00039 13.9502C6.90039 13.9502 5.10039 12.5252 4.42539 10.5752H1.65039V12.6752C3.00039 15.3752 5.77539 17.2502 9.00039 17.2502Z" fill="#34A853"/>
<path d="M4.425 10.575C4.275 10.05 4.125 9.525 4.125 9C4.125 8.475 4.2 7.95 4.425 7.425V5.25H1.65C1.05 6.375 0.75 7.65 0.75 9C0.75 10.35 1.05 11.625 1.65 12.75L4.425 10.575Z" fill="#FBBC05"/>
<path d="M9.00039 4.05C10.2004 4.05 11.2504 4.5 12.0754 5.25L14.4004 2.925C13.1254 1.575 11.2504 0.75 9.00039 0.75C5.77539 0.75 3.00039 2.625 1.65039 5.25L4.42539 7.425C5.10039 5.475 6.90039 4.05 9.00039 4.05Z" fill="#EA4335"/>
</g>
<defs>
<clipPath id="clip0_14760_19395">
<rect width="18" height="18" fill="white"/>
</clipPath>
</defs>
</svg>
